<svg preserveAspectRatio="none" width="100%" height="100%" overflow="visible" style="display: block;" viewBox="0 0 20 20" fill="none" xmlns="http://www.w3.org/2000/svg">
<g id="Chevron Button">
<path id="Chevron Icon" d="M7.75 13.498C7.75 13.3613 7.79883 13.2441 7.89648 13.1465L11.043 10L7.89648 6.85352C7.79883 6.75586 7.75 6.63867 7.75 6.50195C7.75 6.36523 7.79688 6.24805 7.89062 6.15039C7.98828 6.04883 8.10742 5.99805 8.24805 5.99805C8.38477 5.99805 8.50195 6.04688 8.59961 6.14453L12.1035 9.64844C12.2012 9.74609 12.25 9.86328 12.25 10C12.25 10.1367 12.2012 10.2539 12.1035 10.3516L8.59961 13.8555C8.50195 13.9531 8.38477 14.002 8.24805 14.002C8.10742 14.002 7.98828 13.9531 7.89062 13.8555C7.79688 13.7539 7.75 13.6348 7.75 13.498Z" fill="var(--fill-0, black)" fill-opacity="0.8956"/>
</g>
</svg>
