<svg preserveAspectRatio="none" width="100%" height="100%" overflow="visible" style="display: block;" viewBox="0 0 20 20" fill="none" xmlns="http://www.w3.org/2000/svg">
<g id="More Button">
<path id="More Icon" d="M10 6.34C9.49 6.34 9.1 5.92 9.1 5.44C9.1 4.945 9.505 4.54 10 4.54C10.495 4.54 10.9 4.93 10.9 5.44C10.9 5.935 10.495 6.34 10 6.34ZM10 10.93C9.49 10.93 9.1 10.51 9.1 10.03C9.1 9.535 9.505 9.13 10 9.13C10.465 9.13 10.9 9.505 10.9 10.03C10.9 10.525 10.495 10.93 10 10.93ZM10 15.46C9.49 15.46 9.1 15.04 9.1 14.56C9.1 14.095 9.475 13.66 10 13.66C10.495 13.66 10.9 14.065 10.9 14.56C10.9 15.07 10.495 15.46 10 15.46Z" fill="var(--fill-0, #5E626A)"/>
</g>
</svg>
